<svg width="163" height="163" viewBox="0 0 163 163" fill="none" xmlns="http://www.w3.org/2000/svg">
<path d="M66.3323 89.1288C69.5599 93.4436 73.6776 97.0139 78.4063 99.5974C83.135 102.181 88.364 103.717 93.7386 104.102C99.1132 104.487 104.508 103.712 109.556 101.828C114.605 99.945 119.189 96.998 122.999 93.1871L145.545 70.6407C152.39 63.5536 156.178 54.0615 156.092 44.2088C156.007 34.3562 152.055 24.9313 145.088 17.9642C138.12 10.997 128.696 7.04505 118.843 6.95943C108.99 6.87381 99.4982 10.6614 92.411 17.5064L79.4844 30.3578M96.3942 74.0979C93.1667 69.783 89.0489 66.2128 84.3202 63.6293C79.5916 61.0458 74.3626 59.5095 68.9879 59.1245C63.6133 58.7396 58.2188 59.5151 53.1702 61.3984C48.1216 63.2816 43.5371 66.2286 39.7276 70.0395L17.1812 92.5859C10.3362 99.6731 6.54862 109.165 6.63423 119.018C6.71985 128.87 10.6718 138.295 17.639 145.262C24.6061 152.23 34.031 156.182 43.8836 156.267C53.7363 156.353 63.2284 152.565 70.3155 145.72L83.167 132.869" stroke="white" stroke-width="12" stroke-linecap="round" stroke-linejoin="round"/>
</svg>
