<svg width="136" height="136" viewBox="0 0 136 136" fill="none" xmlns="http://www.w3.org/2000/svg">
<path d="M49.9133 98.7763H37.6133C29.4579 98.7763 21.6365 95.5366 15.8697 89.7699C10.103 84.0031 6.86328 76.1818 6.86328 68.0264C6.86328 59.8709 10.103 52.0496 15.8697 46.2828C21.6365 40.5161 29.4579 37.2764 37.6133 37.2764M86.8133 37.2764H99.1133C104.824 37.2764 110.422 38.8666 115.279 41.8688C120.137 44.8711 124.063 49.1668 126.617 54.2745C129.171 59.3823 130.252 65.1003 129.739 70.7879C129.226 76.4754 127.14 81.9078 123.713 86.4763M43.7633 68.0264H68.3633M6.86328 6.52637L129.863 129.526" stroke="white" stroke-width="12" stroke-linecap="round" stroke-linejoin="round"/>
</svg>
