<svg width="23" height="24" viewBox="0 0 23 24" fill="none" xmlns="http://www.w3.org/2000/svg">
<path d="M10.3164 14.6323C10.8634 14.6324 11.3057 15.0756 11.3057 15.6226C11.3055 16.1694 10.8633 16.6118 10.3164 16.6118H5.83008C5.71771 16.6118 5.60755 16.6277 5.50195 16.6597L5.49707 16.6616L5.48047 16.6655C4.16809 17.0777 3.28809 18.2872 3.28809 19.687V22.3501C3.28805 22.7735 3.02203 23.1334 2.64844 23.2749V23.3403H2.29785C1.75095 23.3403 1.30867 22.898 1.30859 22.3511V19.688C1.30859 17.4938 2.65797 15.5701 4.69238 14.8442L4.89062 14.7778L4.9248 14.7671L4.92773 14.7661L5.14844 14.7085C5.37117 14.6583 5.5997 14.6323 5.83008 14.6323H10.3164ZM13.0049 12.4858C13.4137 12.1948 13.9842 12.2546 14.3223 12.6401L17.2119 15.938L20.2119 12.8774L20.2861 12.8091C20.6715 12.4884 21.2449 12.504 21.6113 12.8638L21.6807 12.938C22.0008 13.3233 21.9842 13.8959 21.625 14.2622L21.626 14.2632L18.5205 17.4312L21.6895 21.0474L21.752 21.1265C22.043 21.5353 21.9825 22.1058 21.5967 22.4438C21.2111 22.7816 20.6378 22.7674 20.2705 22.4253L20.2002 22.3521L17.1309 18.8491L13.6348 22.4175C13.2761 22.7827 12.7028 22.8126 12.3105 22.4985L12.2344 22.4312C11.8451 22.0486 11.8371 21.4225 12.2207 21.0317L15.8213 17.355L12.833 13.9458C12.4726 13.5346 12.5143 12.9089 12.9258 12.5483L13.0049 12.4858ZM10 1.24756C12.98 1.24756 15.4033 3.67085 15.4033 6.65088C15.4032 9.51301 13.1677 11.8604 10.3506 12.0415V12.0552H10C7.02017 12.0551 4.59688 9.63166 4.59668 6.65186C4.59668 3.67196 7.01996 1.24764 10 1.24756ZM10 3.22705C8.11223 3.22713 6.57617 4.76309 6.57617 6.65088C6.57634 8.53852 8.11234 10.0746 10 10.0747C11.8877 10.0747 13.4237 8.53857 13.4238 6.65088C13.4238 4.76305 11.8878 3.22705 10 3.22705Z" fill="#371DCD" stroke="#371DCD" stroke-width="0.7"/>
</svg>
